<svg width="100%" height="100%" viewBox="0 0 640 55" version="1.1" xmlns="http://www.w3.org/2000/svg" xmlns:xlink="http://www.w3.org/1999/xlink">
  <!-- Generator: Sketch 47.1 (45422) - http://www.bohemiancoding.com/sketch -->
  <desc>Created with Sketch.</desc>
  <defs></defs>
  <g id="Page-1" stroke="none" stroke-width="1" fill="none" fill-rule="evenodd">
    <path d="M27.384,54.44 C43.368,54.44 53.088,47.888 53.088,36.728 C53.088,27.656 48.192,23.12 36.384,21.248 L26.592,19.736 C21.408,18.8 19.752,17.792 19.752,15.56 C19.752,13.256 22.56,11.96 27.456,11.96 C33.792,11.96 40.2,14.408 44.016,18.296 L53.232,8.144 C47.04,2.96 38.184,0.44 28.536,0.44 C13.344,0.44 4.344,6.488 4.344,16.496 C4.344,25.568 9.888,30.752 21.048,32.624 L31.2,34.208 C35.736,35 37.104,35.936 37.104,38.24 C37.104,40.976 34.008,42.488 28.176,42.488 C21.192,42.488 15.072,39.464 10.968,34.856 L0.096,44.576 C5.496,50.552 15.864,54.44 27.384,54.44 Z M58.056,1.88 L58.056,33.128 C58.056,46.232 67.632,54.44 84.192,54.44 C100.68,54.44 110.256,46.232 110.256,33.2 L110.256,1.88 L93.84,1.88 L93.84,31.904 C93.84,37.88 90.168,41.552 84.192,41.552 C77.928,41.552 74.544,37.88 74.544,31.904 L74.544,1.88 L58.056,1.88 Z M148.344,1.88 C160.944,1.88 168.864,8.432 168.864,18.8 C168.864,29.888 160.944,36.728 148.272,36.728 L135.168,36.728 L135.168,53 L118.752,53 L118.752,1.88 L148.344,1.88 Z M143.88,25.928 C148.848,25.928 151.512,23.696 151.512,19.376 C151.512,15.128 148.92,12.896 143.952,12.896 L135.168,12.896 L135.168,25.928 L143.88,25.928 Z M190.896,41.552 L190.896,32.48 L216.96,32.48 L216.96,21.608 L190.896,21.608 L190.896,13.328 L218.184,13.328 L218.184,1.88 L174.48,1.88 L174.48,53 L218.688,53 L218.688,41.552 L190.896,41.552 Z M260.52,53 L251.088,35.144 L243.312,35.144 L243.312,53 L226.896,53 L226.896,1.88 L256.056,1.88 C270.816,1.88 277.008,8.72 277.008,18.296 C277.008,24.416 273.912,30.176 267.072,32.912 L278.376,53 L260.52,53 Z M243.312,12.68 L243.312,24.848 L252.24,24.848 C257.424,24.848 259.728,22.4 259.728,18.584 C259.728,14.912 257.496,12.68 252.24,12.68 L243.312,12.68 Z M327.408,54.44 C343.392,54.44 353.112,47.888 353.112,36.728 C353.112,27.656 348.216,23.12 336.408,21.248 L326.616,19.736 C321.432,18.8 319.776,17.792 319.776,15.56 C319.776,13.256 322.584,11.96 327.48,11.96 C333.816,11.96 340.224,14.408 344.04,18.296 L353.256,8.144 C347.064,2.96 338.208,0.44 328.56,0.44 C313.368,0.44 304.368,6.488 304.368,16.496 C304.368,25.568 309.912,30.752 321.072,32.624 L331.224,34.208 C335.76,35 337.128,35.936 337.128,38.24 C337.128,40.976 334.032,42.488 328.2,42.488 C321.216,42.488 315.096,39.464 310.992,34.856 L300.12,44.576 C305.52,50.552 315.888,54.44 327.408,54.44 Z M412.08,1.88 L395.592,1.88 L395.592,21.32 L375.792,21.32 L375.792,1.88 L359.376,1.88 L359.376,53 L375.792,53 L375.792,33.056 L395.592,33.056 L395.592,53 L412.08,53 L412.08,1.88 Z M461.832,53 L458.304,42.848 L438,42.848 L434.472,53 L417.48,53 L438,1.88 L458.376,1.88 L478.824,53 L461.832,53 Z M441.672,32.336 L454.632,32.336 L451.104,22.184 C449.808,18.584 448.872,15.992 448.224,12.32 L448.08,12.32 C447.504,15.992 446.568,18.584 445.2,22.184 L441.672,32.336 Z M513.888,1.88 C526.488,1.88 534.408,8.432 534.408,18.8 C534.408,29.888 526.488,36.728 513.816,36.728 L500.712,36.728 L500.712,53 L484.296,53 L484.296,1.88 L513.888,1.88 Z M509.424,25.928 C514.392,25.928 517.056,23.696 517.056,19.376 C517.056,15.128 514.464,12.896 509.496,12.896 L500.712,12.896 L500.712,25.928 L509.424,25.928 Z M556.44,41.552 L556.44,32.48 L582.504,32.48 L582.504,21.608 L556.44,21.608 L556.44,13.328 L583.728,13.328 L583.728,1.88 L540.024,1.88 L540.024,53 L584.232,53 L584.232,41.552 L556.44,41.552 Z M613.464,54.44 C629.448,54.44 639.168,47.888 639.168,36.728 C639.168,27.656 634.272,23.12 622.464,21.248 L612.672,19.736 C607.488,18.8 605.832,17.792 605.832,15.56 C605.832,13.256 608.64,11.96 613.536,11.96 C619.872,11.96 626.28,14.408 630.096,18.296 L639.312,8.144 C633.12,2.96 624.264,0.44 614.616,0.44 C599.424,0.44 590.424,6.488 590.424,16.496 C590.424,25.568 595.968,30.752 607.128,32.624 L617.28,34.208 C621.816,35 623.184,35.936 623.184,38.24 C623.184,40.976 620.088,42.488 614.256,42.488 C607.272,42.488 601.152,39.464 597.048,34.856 L586.176,44.576 C591.576,50.552 601.944,54.44 613.464,54.44 Z"
      id="SUPER-SHAPES" fill="#000000"></path>
  </g>
</svg>